<?xml version="1.0" standalone="no"?>
<!DOCTYPE svg PUBLIC "-//W3C//DTD SVG 20010904//EN"
 "http://www.w3.org/TR/2001/REC-SVG-20010904/DTD/svg10.dtd">
<svg version="1.0" xmlns="http://www.w3.org/2000/svg"
 width="500.000000pt" height="500.000000pt" viewBox="0 0 500.000000 500.000000"
 preserveAspectRatio="xMidYMid meet">

<g transform="translate(0.000000,500.000000) scale(0.100000,-0.100000)"
fill="#000000" stroke="none">
<path d="M0 2500 l0 -2500 2500 0 2500 0 0 2500 0 2500 -2500 0 -2500 0 0
-2500z m4380 2375 c47 -9 113 -24 147 -36 61 -20 198 -110 214 -139 4 -8 24
-42 43 -75 19 -33 47 -100 62 -150 24 -80 27 -107 28 -240 0 -169 -14 -256
-70 -444 -54 -178 -115 -316 -241 -551 -120 -223 -191 -339 -353 -573 -140
-202 -130 -178 -89 -229 44 -53 202 -285 296 -433 202 -318 373 -721 423
-1000 38 -206 36 -350 -6 -510 -33 -129 -143 -261 -265 -320 -119 -57 -192
-68 -407 -62 -162 4 -200 8 -282 31 -206 58 -454 153 -624 238 -195 98 -740
461 -981 652 -439 349 -943 862 -1259 1284 -43 56 -81 100 -86 97 -15 -9 -286
-418 -370 -558 -262 -440 -409 -955 -361 -1267 33 -211 176 -358 387 -395 182
-33 379 -10 652 75 292 90 588 237 919 455 150 99 194 125 214 125 65 0 -363
-279 -657 -428 -551 -278 -1048 -359 -1317 -215 -180 97 -287 317 -274 563 14
263 87 517 244 855 135 291 254 496 434 751 44 62 79 115 79 119 0 3 -31 50
-68 103 -113 161 -215 327 -358 582 -155 276 -286 648 -315 896 -17 141 -7
324 20 404 108 311 400 443 823 371 218 -38 407 -106 690 -247 259 -130 588
-333 693 -429 72 -66 8 -34 -277 137 -435 262 -659 372 -892 437 -209 59 -452
77 -600 46 -210 -44 -349 -181 -392 -385 -40 -187 28 -556 158 -856 57 -133
198 -408 293 -574 80 -141 236 -379 264 -404 15 -14 23 -7 81 67 421 534 727
846 1295 1318 247 206 382 302 660 471 324 197 537 297 779 367 284 83 476
106 646 76z m-3284 -820 c4 -11 19 -15 50 -13 41 1 74 -14 74 -34 0 -19 -29
-38 -60 -38 -31 0 -33 -3 -44 -53 -12 -55 -63 -39 -70 21 -2 16 -6 34 -10 41
-10 15 24 91 41 91 8 0 16 -7 19 -15z m-86 -766 c10 -18 9 -20 -12 -17 -12 2
-24 11 -26 21 -5 24 25 22 38 -4z m0 -1540 c0 -10 -4 -19 -9 -19 -14 0 -33 28
-27 39 10 16 36 1 36 -20z m-10 -394 c0 -3 -10 -22 -23 -43 -36 -59 -50 -117
-42 -185 8 -68 27 -119 53 -145 10 -10 25 -27 33 -38 20 -29 78 -61 122 -69
27 -5 35 -11 28 -19 -16 -20 -102 -59 -146 -67 -84 -16 -210 29 -246 88 -11
18 -25 33 -30 33 -40 0 -61 259 -23 291 8 6 14 17 14 24 0 18 64 80 102 100
18 9 56 20 83 25 68 10 75 11 75 5z"/>
<path d="M4120 4799 c-127 -16 -395 -91 -535 -150 -324 -134 -657 -335 -1085
-652 -510 -379 -988 -841 -1402 -1356 l-117 -145 26 -36 c181 -241 566 -668
794 -879 219 -204 734 -621 959 -778 217 -150 488 -304 724 -408 179 -80 315
-126 484 -165 107 -25 148 -30 262 -30 272 0 424 79 518 269 l37 75 -1 191 c0
207 -9 266 -65 450 -95 306 -354 818 -578 1140 -35 50 -69 96 -76 103 -10 11
-27 -5 -92 -90 -196 -254 -464 -550 -692 -766 -281 -266 -500 -451 -584 -493
-36 -19 -38 -19 -28 -2 16 30 176 179 462 430 148 130 458 447 575 588 168
203 307 392 298 407 -49 82 -222 290 -450 543 -260 287 -506 524 -759 730
-151 124 -220 199 -147 161 102 -54 403 -316 678 -590 239 -239 354 -367 584
-644 l134 -163 18 23 c10 13 85 122 166 243 303 453 504 902 561 1255 6 36 11
124 11 195 0 243 -56 368 -205 459 -96 58 -117 66 -220 82 -99 15 -157 16
-255 3z m-153 -549 c53 -27 64 -37 103 -99 31 -49 34 -61 35 -130 2 -133 -46
-223 -145 -273 -44 -23 -67 -28 -127 -28 -78 0 -114 11 -153 47 -14 13 -36 31
-48 41 -24 18 -24 18 30 18 41 0 62 6 93 27 73 48 95 75 121 150 19 54 21 192
3 215 -8 9 -20 28 -27 41 l-14 24 45 -7 c25 -4 63 -16 84 -26z m-429 -44 c3
-13 -1 -17 -14 -14 -11 2 -20 11 -22 22 -3 13 1 17 14 14 11 -2 20 -11 22 -22z
m-1031 -708 c-2 -18 -4 -6 -4 27 0 33 2 48 4 33 2 -15 2 -42 0 -60z m64 -428
c22 -124 50 -247 61 -273 31 -71 83 -110 209 -154 59 -21 105 -41 101 -44 -4
-4 -50 -21 -103 -38 -53 -17 -114 -45 -137 -62 -65 -48 -85 -103 -133 -369
-23 -129 -45 -238 -49 -242 -3 -4 -25 99 -49 230 -24 130 -53 259 -64 285 -30
73 -88 117 -204 157 -54 18 -102 36 -106 40 -4 4 41 23 100 44 196 67 206 82
270 429 29 154 51 250 55 240 4 -10 26 -119 49 -243z m-686 -480 c3 -5 -3 -10
-15 -10 -12 0 -18 5 -15 10 3 6 10 10 15 10 5 0 12 -4 15 -10z m1275 0 c12 -8
11 -10 -7 -10 -13 0 -23 5 -23 10 0 13 11 13 30 0z m-1207 -7 c-7 -2 -21 -2
-30 0 -10 3 -4 5 12 5 17 0 24 -2 18 -5z m1270 0 c-7 -2 -21 -2 -30 0 -10 3
-4 5 12 5 17 0 24 -2 18 -5z m780 -884 c3 -11 0 -19 -8 -19 -17 0 -38 27 -31
39 10 15 33 3 39 -20z m-1496 -46 c-3 -10 -5 -4 -5 12 0 17 2 24 5 18 2 -7 2
-21 0 -30z m0 -60 c-3 -10 -5 -4 -5 12 0 17 2 24 5 18 2 -7 2 -21 0 -30z
m1513 -603 c0 -5 17 -10 38 -10 48 0 83 -10 76 -21 -3 -5 -14 -9 -25 -9 -10 0
-19 -5 -19 -11 0 -5 -4 -7 -10 -4 -5 3 -10 1 -10 -4 0 -6 -6 -11 -12 -11 -8 0
-13 -17 -14 -46 -1 -27 -7 -50 -15 -55 -19 -12 -52 -11 -45 0 4 5 1 11 -6 13
-6 2 -11 18 -10 35 1 35 -15 53 -47 56 -26 2 -28 35 -3 43 9 3 28 11 42 19 30
16 60 19 60 5z"/>
</g>
</svg>
