<svg id="visual" viewBox="0 0 900 600" width="900" height="600" xmlns="http://www.w3.org/2000/svg" xmlns:xlink="http://www.w3.org/1999/xlink" version="1.1"><rect x="0" y="0" width="900" height="600" fill="#FFFFFF"></rect><path d="M0 77L37.5 84.5C75 92 150 107 225 104.7C300 102.3 375 82.7 450 74.7C525 66.7 600 70.3 675 77.2C750 84 825 94 862.5 99L900 104L900 0L862.5 0C825 0 750 0 675 0C600 0 525 0 450 0C375 0 300 0 225 0C150 0 75 0 37.5 0L0 0Z" fill="#3F51B5" stroke-linecap="round" stroke-linejoin="miter"></path></svg>